<?xml version="1.0" encoding="utf-8"?>
<!-- Generator: Adobe Illustrator 23.0.0, SVG Export Plug-In . SVG Version: 6.00 Build 0)  -->
<svg version="1.1" xmlns="http://www.w3.org/2000/svg" xmlns:xlink="http://www.w3.org/1999/xlink" x="0px" y="0px"
	 viewBox="0 0 1008.9 441.2" style="enable-background:new 0 0 1008.9 441.2;" xml:space="preserve">
<style type="text/css">
	.st0{fill:url(#SVGID_3_);}
	.st1{fill:url(#SVGID_4_);}
	.st2{fill:url(#SVGID_5_);}
	.st3{fill:url(#SVGID_6_);}
	.st4{fill:url(#SVGID_7_);}
	.st5{fill:url(#SVGID_8_);}
	.st6{fill:#101010;}
	.st7{fill:url(#SVGID_9_);}
	.st8{fill:url(#SVGID_10_);}
	.st9{fill:url(#SVGID_11_);}
	.st10{fill:url(#SVGID_12_);}
	.st11{fill:#639B2D;}
	.st12{font-family:'AR DESTINE';}
	.st13{font-size:70.142px;}
	.st14{opacity:0.18;fill:#639B2D;enable-background:new    ;}
	.st15{font-size:118.955px;}
	.st16{font-size:116.8851px;}
	.st17{font-size:91.5447px;}
	.st18{opacity:0.31;fill:#00125C;enable-background:new    ;}
	.st19{opacity:0.2;fill:#00125C;enable-background:new    ;}
	.st20{opacity:0.51;}
	.st21{fill:#D5FF1D;}
	.st22{font-size:18px;}
	.st23{fill:none;stroke:#00D011;stroke-width:3;stroke-miterlimit:10;}
	.st24{fill:none;stroke:#00D011;stroke-width:3;stroke-miterlimit:10;stroke-dasharray:1.9786,1.9786;}
	.st25{fill:none;stroke:#00D011;stroke-width:3;stroke-miterlimit:10;stroke-dasharray:2;}
	.st26{opacity:0.69;fill:#C1C1BC;}
</style>
<g id="BACK2">
	<g>
		<defs>
			<path id="SVGID_1_" d="M152,24.5c74.1,73.6,147,97.5,182.8,106.2c63.7,15.5,123.3,11,178,6.8c44.7-3.4,81.6-9.9,107.2-15.3
				c63.7-18,131.4-35.1,202.9-50.8c64.7-14.2,127.1-26,186.9-35.7c-0.3,94.5-0.6,189-0.9,283.6c-57.4,32.5-161.3,81.3-299.8,93.3
				C599.4,422,509.2,404.9,451,389c-39.5-19-84.9-44.4-132.6-78.3c-42.7-30.4-78.3-61.3-107.2-89.4C191.5,155.6,171.7,90,152,24.5z"
				/>
		</defs>
		<clipPath id="SVGID_2_">
			<use xlink:href="#SVGID_1_"  style="overflow:visible;"/>
		</clipPath>
		<g transform="matrix(1 0 0 1 0 0)" style="clip-path:url(#SVGID_2_);">
			
				<image style="overflow:visible;" width="1920" height="1080" xlink:href="../integrated/jury/revit model/1/9.jpg"  transform="matrix(0.4799 0 0 0.4669 137.1577 24.4666)">
			</image>
		</g>
	</g>
</g>
<g id="BACK">
	<g id="background">
		<path d="M506.8,135.6"/>
		
			<linearGradient id="SVGID_3_" gradientUnits="userSpaceOnUse" x1="332.5392" y1="715.2327" x2="603.2772" y2="715.2327" gradientTransform="matrix(0.3527 -0.9357 0.9357 0.3527 34.0911 491.1533)">
			<stop  offset="0.1659" style="stop-color:#FFFFFF"/>
			<stop  offset="0.6754" style="stop-color:#00427C"/>
			<stop  offset="1" style="stop-color:#000000"/>
		</linearGradient>
		<path class="st0" d="M1009.9,214.3c-1.9-1.8-111.1,24.3-197.5,88.7c-60.9,45.4-87.9,93.1-85.1,94c2.7,0.9,33.1-43.7,101.3-91.9
			C918.5,241.6,1011.7,216,1009.9,214.3z"/>
		
			<linearGradient id="SVGID_4_" gradientUnits="userSpaceOnUse" x1="356.9225" y1="736.2948" x2="603.2673" y2="736.2948" gradientTransform="matrix(0.3527 -0.9357 0.9357 0.3527 34.0911 491.1533)">
			<stop  offset="0.1659" style="stop-color:#FFFFFF"/>
			<stop  offset="0.6754" style="stop-color:#00427C"/>
			<stop  offset="1" style="stop-color:#000000"/>
		</linearGradient>
		<path class="st1" d="M1009.9,214.3c-1.7-1.2-82.5,32.2-155.4,91.6c-51.2,41.8-81.3,82.4-79.6,83c1.5,0.5,27.9-30.3,73.5-68.1
			C932,251.6,1011.6,215.5,1009.9,214.3z"/>
		
			<linearGradient id="SVGID_5_" gradientUnits="userSpaceOnUse" x1="402.9245" y1="775.29" x2="603.2653" y2="775.29" gradientTransform="matrix(0.3527 -0.9357 0.9357 0.3527 34.0911 491.1533)">
			<stop  offset="0.1659" style="stop-color:#FFFFFF"/>
			<stop  offset="0.6754" style="stop-color:#00427C"/>
			<stop  offset="1" style="stop-color:#000000"/>
		</linearGradient>
		<path class="st2" d="M1009.9,214.3c-1.5-0.9-80,32.3-118,93.5c-21.6,34.8-23.4,67.7-21.7,67.9c1.6,0.2,5.9-30.8,29-66.1
			C940.1,247.3,1011.3,215.1,1009.9,214.3z"/>
		
			<linearGradient id="SVGID_6_" gradientUnits="userSpaceOnUse" x1="459.5659" y1="792.1639" x2="603.2646" y2="792.1639" gradientTransform="matrix(0.3527 -0.9357 0.9357 0.3527 34.0911 491.1533)">
			<stop  offset="0.1659" style="stop-color:#FFFFFF"/>
			<stop  offset="0.6754" style="stop-color:#00427C"/>
			<stop  offset="1" style="stop-color:#000000"/>
		</linearGradient>
		<path class="st3" d="M1009.9,214.3c-1.1-0.6-55,24.8-74.2,65.2c-11,23.3-7.7,44.6-2.7,59.4c-1.3-21.5,2.3-52,27.8-82.9
			C982.7,229.4,1010.7,214.7,1009.9,214.3z"/>
		
			<linearGradient id="SVGID_7_" gradientUnits="userSpaceOnUse" x1="506.6845" y1="809.5185" x2="602.014" y2="809.5185" gradientTransform="matrix(0.3527 -0.9357 0.9357 0.3527 34.0911 491.1533)">
			<stop  offset="0.1659" style="stop-color:#FFFFFF"/>
			<stop  offset="0.6754" style="stop-color:#00427C"/>
			<stop  offset="1" style="stop-color:#000000"/>
		</linearGradient>
		<path class="st4" d="M1008.8,215.2c-1.6-0.6-41.5,21.4-42.6,53c-0.6,18.8,12.7,33.3,20.8,40.7c-7.6-12.9-14.3-30.8-8.8-50.8
			C985.6,231.9,1010.1,215.8,1008.8,215.2z"/>
		
			<linearGradient id="SVGID_8_" gradientUnits="userSpaceOnUse" x1="772.6705" y1="400.5898" x2="772.6705" y2="400.5898" gradientTransform="matrix(1 0 0 -1 0 441.8898)">
			<stop  offset="1.331947e-07" style="stop-color:#FFFFFF"/>
			<stop  offset="0.4385" style="stop-color:#00427C"/>
			<stop  offset="1" style="stop-color:#000000"/>
		</linearGradient>
		<path class="st5" d="M772.7,41.3"/>
		<path class="st6" d="M83.1,5.4c88.6,86,177.2,172.1,265.8,258.1L44.1,5.4C57.1,5.4,70.1,5.4,83.1,5.4z"/>
		
			<linearGradient id="SVGID_9_" gradientUnits="userSpaceOnUse" x1="0.3593" y1="204.6605" x2="1009.8141" y2="204.6605" gradientTransform="matrix(1 0 0 -1 0 441.8898)">
			<stop  offset="2.663895e-07" style="stop-color:#FFFFFF"/>
			<stop  offset="0.3715" style="stop-color:#0F1C4C"/>
			<stop  offset="1" style="stop-color:#000000"/>
		</linearGradient>
		<path class="st7" d="M0.4,32.9C102,114.6,203.6,196.4,305.2,278.1c13.7,11,62.9,49.1,146.4,83.4c73.7,30.3,119.4,35,139.8,36.4
			c48.1,3.3,85-3,126.6-10.1c66.3-11.3,111.5-27.9,157.8-45c36.1-13.3,83.5-33,133.9-60.6v46.2c-34.9,20.6-85.3,46.3-153.1,69.4
			c-61.1,20.9-118.1,33.5-163.1,41.4c-65.9,5.8-115.5-1.1-142.4-6.2c-56.1-10.6-92.7-28.6-131.3-47.6
			c-36.8-18.1-65.5-37.1-93.2-55.4c-20.9-13.8-37.1-25.7-44.5-31.1c-19.6-14.5-33.7-26.1-42.4-33.3C185.3,221.1,105,156.8,0.4,73.2
			C0.4,59.8,0.4,46.3,0.4,32.9z"/>
		<path class="st6" d="M1009.9,155.5c-32.9,26.2-84.8,61.1-160.7,91.8c-117.1,47.4-231.3,60.5-294.5,64.7
			c63.8,0,186.8-5.8,313.6-51.6c63.1-22.8,109.5-49.1,141.7-70.8C1009.9,178.3,1009.9,166.9,1009.9,155.5z"/>
		
			<linearGradient id="SVGID_10_" gradientUnits="userSpaceOnUse" x1="798.9404" y1="103.2998" x2="798.9404" y2="103.2998" gradientTransform="matrix(1 0 0 -1 0 441.8898)">
			<stop  offset="1.331947e-07" style="stop-color:#FFFFFF"/>
			<stop  offset="0.4385" style="stop-color:#00427C"/>
			<stop  offset="1" style="stop-color:#000000"/>
		</linearGradient>
		<path class="st8" d="M798.9,338.6"/>
		
			<linearGradient id="SVGID_11_" gradientUnits="userSpaceOnUse" x1="961.4127" y1="187.8398" x2="961.4127" y2="187.8398" gradientTransform="matrix(1 0 0 -1 0 441.8898)">
			<stop  offset="0.1659" style="stop-color:#FFFFFF"/>
			<stop  offset="0.6754" style="stop-color:#00427C"/>
			<stop  offset="1" style="stop-color:#000000"/>
		</linearGradient>
		<path class="st9" d="M961.4,254.1"/>
		<path d="M108.1-14.7c40.6,39.8,82.3,69.4,114.2,89.6c56.7,35.9,85.5,44.1,101.5,47.8c46.2,10.9,91.4,10.2,120.3,9.8
			c37.5-0.5,68.2-4.1,89.5-7.3c68.1-11.7,140.4-26,215.7-43.4c39.3-9.1,76.9-18.5,112.7-28c22-5.6,48-11.3,77.8-16.1
			c25.9-4.1,49.9-6.8,71.2-8.5v12.2C982.3,45.4,931,53,885.8,63.5c-5.1,1.2-18.4,4.3-34.9,8.5c-24.4,6.2-44.4,11.8-58.9,16
			c-48.3,12.5-89.6,21.7-120.4,28c-32.5,6.7-61,12.5-100.5,18.3C533,140,499.3,144.8,454.6,146c-37.8,1-69.2-0.9-90.4-2.8
			c-14.4-3.2-34.7-8.5-56.9-16.8c-33.1-12.4-53.8-25.3-76.6-39.8c-25.8-16.3-42.5-29.7-57.4-41.8C155,30.2,132.1,10.2,108.1-14.7z"
			/>
		
			<linearGradient id="SVGID_12_" gradientUnits="userSpaceOnUse" x1="0.3593" y1="137.4298" x2="399.0579" y2="137.4298" gradientTransform="matrix(1 0 0 -1 0 441.8898)">
			<stop  offset="2.663895e-07" style="stop-color:#FFFFFF"/>
			<stop  offset="7.286964e-03" style="stop-color:#F1F2F5"/>
			<stop  offset="3.430000e-02" style="stop-color:#C2C5D2"/>
			<stop  offset="6.360000e-02" style="stop-color:#979DB2"/>
			<stop  offset="9.470000e-02" style="stop-color:#727A96"/>
			<stop  offset="0.128" style="stop-color:#535D7F"/>
			<stop  offset="0.1642" style="stop-color:#3A456C"/>
			<stop  offset="0.2043" style="stop-color:#27335E"/>
			<stop  offset="0.2507" style="stop-color:#192654"/>
			<stop  offset="0.3089" style="stop-color:#111E4E"/>
			<stop  offset="0.4162" style="stop-color:#0F1C4C"/>
			<stop  offset="1" style="stop-color:#000000"/>
		</linearGradient>
		<path class="st10" d="M0.4,167.8C18.2,206.2,64,291.4,161.1,358.4c98.4,67.9,195.6,80,237.9,82.8c-132.9,0-265.8,0-398.7,0
			C0.4,350,0.4,258.9,0.4,167.8z"/>
		<text transform="matrix(1.1882 0 0 1 299.1561 102.09)" class="st11 st12 st13">ABAT.YB</text>
		<text transform="matrix(0 -0.6106 1 0 979.2373 356.9816)" class="st14 st12 st15">ABAT.YB</text>
		<text transform="matrix(0 -0.5668 1 0 89.8584 352.9913)" class="st14 st12 st16">ABAT.YB</text>
		<text transform="matrix(1.0429 -0.4628 0.7581 0.6522 405.9972 375.7965)" class="st14 st12 st17">ABAT.YB</text>
		<ellipse class="st18" cx="160.2" cy="102.1" rx="142.1" ry="81.5"/>
		<ellipse class="st18" cx="376.7" cy="221.2" rx="74.3" ry="45.9"/>
		<ellipse class="st18" cx="470.4" cy="283.1" rx="33.1" ry="20.4"/>
		<ellipse class="st19" cx="563.2" cy="338.2" rx="30.7" ry="19"/>
		<ellipse class="st18" cx="639.9" cy="380.9" rx="19.9" ry="12.3"/>
	</g>
</g>
<g id="HOME">
	<path class="st20" d="M163.7,253.9H98.8c-5.8,0-10.5-5.4-10.5-12v-3.4c0-6.6,4.7-12,10.5-12h32.4h32.4c5.8,0,10.5,5.4,10.5,12v3.4
		C174.2,248.5,169.5,253.9,163.7,253.9z"/>
	<text transform="matrix(1 0 0 1 107.5484 245.7278)" class="st21 st12 st22">HOME</text>
	<g>
		<g>
			<line class="st23" x1="125.2" y1="226.5" x2="126.2" y2="226.5"/>
			<path class="st24" d="M128.1,226.5h36.4c1.1,0.3,3.3,1,5.4,2.9c2.2,2,3.2,4.2,3.6,5.3c0,3.1,0,6.2,0,9.2
				c-0.1,0.9-0.6,4.1-3.2,6.7c-2.5,2.5-5.3,3.1-6.3,3.2c-12.2,0-24.5,0-36.7,0"/>
			<path class="st23" d="M126.3,253.9c-0.3,0-0.7,0-1,0"/>
		</g>
	</g>
</g>
<g id="ASSIGNMENT">
	<path class="st20" d="M307.1,362.2h-96.6c-6,0-10.8-4.9-10.8-10.8v-2.3c0-6,4.9-10.8,10.8-10.8h96.6c6,0,10.8,4.9,10.8,10.8v2.3
		C317.9,357.4,313,362.2,307.1,362.2z"/>
	<g>
		<text transform="matrix(1 0 0 1 204.304 355.0806)" class="st21 st12 st22">ASSIGNMENT</text>
	</g>
	<path class="st25" d="M258.8,338.2h50.3c0.9,0.2,3.7,1,5.9,3.8c1.6,2,2.1,4.1,2.3,5.2c0,2.3,0,4.6,0,7c-0.4,1.1-1.3,3.3-3.4,5.3
		c-2.1,1.9-4.2,2.5-5.2,2.7c-16.4,0-32.9,0-49.3,0"/>
</g>
<g id="GALLERY">
	<path class="st20" d="M971.9,416.9h-78.3c-5.3,0-9.7-4.4-9.7-9.7v-1.9c0-5.3,4.4-9.7,9.7-9.7h78.3c5.3,0,9.7,4.4,9.7,9.7v1.9
		C981.6,412.5,977.2,416.9,971.9,416.9z"/>
	<g>
		<text transform="matrix(1 0 0 1 893.9149 412.1021)" class="st21 st12 st22">GALLERY</text>
	</g>
	<path class="st25" d="M932.7,395.6l40.2,0.1c0.9,0.1,3.1,0.5,5.2,2.2c2.1,1.7,2.8,3.9,3.1,4.7c0,2.5,0,4.9,0,7.4
		c-0.3,0.9-0.9,2.6-2.5,4.2c-2.3,2.2-4.9,2.7-5.8,2.8c-13.4,0-26.7,0-40.1,0"/>
</g>
<g id="CONTACT">
	<rect x="86.4" y="398.4" class="st26" width="101.4" height="23.5"/>
	<g>
		<text transform="matrix(1 0 0 1 92.617 416.2762)" class="st21 st12 st22">CONTACT</text>
	</g>
	<path class="st25" d="M131.8,398.4l44.3,0.2c1.1,0.2,3.7,0.8,6,2.9c2.1,1.9,2.9,4,3.3,5.1c0.2,2,0.4,4,0.6,6
		c-0.3,1.1-1.2,4-3.9,6.3c-3.5,3-7.5,3.1-8.5,3c-13.9,0-27.8,0-41.7,0"/>
</g>
</svg>
