<?xml version="1.0" encoding="utf-8"?>
<!-- Generator: Adobe Illustrator 23.0.0, SVG Export Plug-In . SVG Version: 6.00 Build 0)  -->
<svg version="1.1" id="Layer_1" xmlns="http://www.w3.org/2000/svg" xmlns:xlink="http://www.w3.org/1999/xlink" x="0px" y="0px"
	 viewBox="0 0 1190.6 841.9" style="enable-background:new 0 0 1190.6 841.9;" xml:space="preserve">
<style type="text/css">
	.st0{fill:none;stroke:url(#SVGID_1_);stroke-width:2;stroke-miterlimit:10;}
	.st1{fill:none;stroke:url(#SVGID_2_);stroke-width:2;stroke-miterlimit:10;}
	.st2{fill:none;stroke:url(#SVGID_3_);stroke-width:2;stroke-miterlimit:10;}
	.st3{fill:none;stroke:#FFFFFF;stroke-miterlimit:10;}
	.st4{fill:#CDC1B6;stroke:#FFFFFF;stroke-miterlimit:10;}
	.st5{fill:#FFFFFF;stroke:#CDC1B6;stroke-miterlimit:10;}
	.st6{fill:#FF8000;stroke:#FFFFFF;stroke-miterlimit:10;}
	.st7{fill:none;}
	.st8{font-family:'ArialMT';}
	.st9{font-size:28.7057px;}
	.st10{fill:#B1DD56;}
	.st11{font-family:'ARDESTINE';}
	.st12{font-size:33.4168px;}
	.st13{fill:#91250A;}
	.st14{fill:url(#SVGID_4_);}
</style>
<g>
	<linearGradient id="SVGID_1_" gradientUnits="userSpaceOnUse" x1="-0.8845" y1="165.7167" x2="62.8936" y2="165.7167">
		<stop  offset="0" style="stop-color:#FFFFFF"/>
		<stop  offset="1" style="stop-color:#000000"/>
	</linearGradient>
	<rect x="0.1" y="93.8" class="st0" width="61.8" height="143.9"/>
	<linearGradient id="SVGID_2_" gradientUnits="userSpaceOnUse" x1="77.4977" y1="167.4916" x2="160.7584" y2="167.4916">
		<stop  offset="0" style="stop-color:#FFFFFF"/>
		<stop  offset="1" style="stop-color:#000000"/>
	</linearGradient>
	<polygon class="st1" points="128.7,91.5 159.6,171.6 109.5,243.5 78.6,163.4 	"/>
	<linearGradient id="SVGID_3_" gradientUnits="userSpaceOnUse" x1="156.1281" y1="169.2665" x2="258.375" y2="169.2665">
		<stop  offset="0" style="stop-color:#FFFFFF"/>
		<stop  offset="1" style="stop-color:#000000"/>
	</linearGradient>
	<rect x="157.1" y="89.2" class="st2" width="100.2" height="160.2"/>
</g>
<text transform="matrix(1 0 0 1 -98.2766 -354.2508)" class="st8" style="font-size:55.6607px;"> </text>
<text transform="matrix(1 0 0 1 -98.2766 -354.2508)" class="st8" style="font-size:55.6607px;"> </text>
<g>
	<line class="st3" x1="140" y1="149.1" x2="198.4" y2="122"/>
	
		<rect x="173.3" y="166.5" transform="matrix(0.9073 -0.4205 0.4205 0.9073 -57.3299 92.1435)" class="st4" width="14.1" height="19.2"/>
	<rect x="156.7" y="165.3" transform="matrix(0.9073 -0.4205 0.4205 0.9073 -56.0898 84.1206)" class="st4" width="12" height="8"/>
	
		<rect x="167.5" y="159.8" transform="matrix(0.9073 -0.4205 0.4205 0.9073 -52.6745 88.5968)" class="st4" width="14.1" height="8"/>
	
		<rect x="180.4" y="154.3" transform="matrix(0.9073 -0.4205 0.4205 0.9073 -49.315 93.0163)" class="st4" width="11.7" height="8"/>
	
		<rect x="191.1" y="149.9" transform="matrix(0.9073 -0.4205 0.4205 0.9073 -46.5329 96.6564)" class="st4" width="9.6" height="8"/>
	
		<rect x="196.8" y="156.4" transform="matrix(0.9073 -0.4205 0.4205 0.9073 -51.1508 100.1763)" class="st4" width="9.6" height="19.4"/>
	
		<rect x="162.4" y="172" transform="matrix(0.9073 -0.4205 0.4205 0.9073 -60.7452 87.6673)" class="st4" width="12" height="19.2"/>
	
		<rect x="152.5" y="154" transform="matrix(0.9073 -0.4205 0.4205 0.9073 -52.6231 81.4779)" class="st4" width="12" height="12.2"/>
	
		<rect x="163.3" y="148.5" transform="matrix(0.9073 -0.4205 0.4205 0.9073 -49.2207 85.9425)" class="st4" width="14" height="12.2"/>
	
		<rect x="176.2" y="143.1" transform="matrix(0.9073 -0.4205 0.4205 0.9073 -45.8148 90.3518)" class="st4" width="11.6" height="12"/>
	
		<rect x="186.8" y="138.6" transform="matrix(0.9073 -0.4205 0.4205 0.9073 -43.0406 93.9899)" class="st4" width="9.6" height="12"/>
	
		<rect x="147.5" y="143.5" transform="matrix(0.9073 -0.4205 0.4205 0.9073 -48.5384 78.372)" class="st4" width="12" height="11.6"/>
	
		<rect x="158.3" y="138" transform="matrix(0.9073 -0.4205 0.4205 0.9073 -45.1293 82.84)" class="st4" width="14.1" height="11.6"/>
	
		<rect x="171.2" y="132.6" transform="matrix(0.9073 -0.4205 0.4205 0.9073 -41.7855 87.2755)" class="st4" width="11.7" height="11.7"/>
	
		<rect x="181.9" y="128.1" transform="matrix(0.9073 -0.4205 0.4205 0.9073 -38.9815 90.9077)" class="st4" width="9.6" height="11.6"/>
	
		<rect x="150.2" y="146.1" transform="matrix(0.9073 -0.4205 0.4205 0.9073 -48.6406 78.3016)" class="st5" width="6.2" height="6.7"/>
	
		<rect x="173.7" y="135.2" transform="matrix(0.9073 -0.4205 0.4205 0.9073 -41.864 87.1828)" class="st5" width="6.2" height="6.7"/>
	
		<rect x="162.2" y="140.5" transform="matrix(0.9073 -0.4205 0.4205 0.9073 -45.1724 82.8535)" class="st5" width="6.2" height="6.7"/>
	
		<rect x="154.5" y="155.5" transform="matrix(0.9073 -0.4205 0.4205 0.9073 -52.1916 81.0034)" class="st5" width="6.2" height="6.7"/>
	
		<rect x="178.1" y="144.6" transform="matrix(0.9073 -0.4205 0.4205 0.9073 -45.4231 89.8909)" class="st5" width="6.2" height="6.7"/>
	
		<rect x="166.6" y="149.9" transform="matrix(0.9073 -0.4205 0.4205 0.9073 -48.7171 85.5635)" class="st5" width="6.2" height="6.7"/>
	
		<rect x="183.6" y="130.6" transform="matrix(0.9073 -0.4205 0.4205 0.9073 -39.0117 90.9326)" class="st5" width="6.2" height="6.7"/>
	<rect x="188" y="140" transform="matrix(0.9073 -0.4205 0.4205 0.9073 -42.5625 93.6344)" class="st5" width="6.2" height="6.7"/>
	
		<rect x="159.4" y="166" transform="matrix(0.9073 -0.4205 0.4205 0.9073 -56.1547 84.0263)" class="st5" width="6.2" height="6.7"/>
	
		<rect x="165.2" y="174" transform="matrix(0.9073 -0.4205 0.4205 0.9073 -60.8742 87.6102)" class="st5" width="6.2" height="15.6"/>
	
		<rect x="198.6" y="158.5" transform="matrix(0.9073 -0.4205 0.4205 0.9073 -51.2471 100.2557)" class="st5" width="6.2" height="15.6"/>
	
		<rect x="182.9" y="155.1" transform="matrix(0.9073 -0.4205 0.4205 0.9073 -49.3863 92.9137)" class="st5" width="6.2" height="6.7"/>
	
		<rect x="171.4" y="160.5" transform="matrix(0.9073 -0.4205 0.4205 0.9073 -52.6865 88.5781)" class="st5" width="6.2" height="6.7"/>
	
		<rect x="171.5" y="168.3" transform="matrix(0.9073 -0.4205 0.4205 0.9073 -55.207 90.4327)" class="st5" width="12" height="4.2"/>
	
		<rect x="192.9" y="150.5" transform="matrix(0.9073 -0.4205 0.4205 0.9073 -46.5338 96.6636)" class="st5" width="6.2" height="6.7"/>
	
		<rect x="175.2" y="174.1" transform="matrix(0.9073 -0.4205 0.4205 0.9073 -59.3356 91.8157)" class="st6" width="6.6" height="12.7"/>
	
		<rect x="181.4" y="171.3" transform="matrix(0.9073 -0.4205 0.4205 0.9073 -57.5549 94.1558)" class="st6" width="6.6" height="12.7"/>
	
		<rect x="186.2" y="161.1" transform="matrix(0.9073 -0.4205 0.4205 0.9073 -53.9911 96.5832)" class="st4" width="11.6" height="19.3"/>
	<rect x="189" y="163" transform="matrix(0.9073 -0.4205 0.4205 0.9073 -54.0214 96.6176)" class="st5" width="6.2" height="15.6"/>
</g>
<path id="SVGID_x5F_1_x5F_" class="st7" d="M-125,302.1c113-84.6,226-169.2,339-253.8"/>
<text transform="matrix(1 0 0 1 3.2441 193.3828)" class="st8 st9"> </text>
<text transform="matrix(1 0 0 1 9.6284 188.6026)" class="st10 st11 st12">I</text>
<text transform="matrix(1 0 0 1 16.3677 183.5557)" class="st10 st11 st12">N</text>
<text transform="matrix(1 0 0 1 34.0522 170.3135)" class="st10 st11 st12">T</text>
<text transform="matrix(1 0 0 1 50.0659 158.3213)" class="st10 st11 st12">E</text>
<text transform="matrix(1 0 0 1 65.2168 146.9756)" class="st10 st11 st12">G</text>
<text transform="matrix(1 0 0 1 80.3672 135.6309)" class="st10 st11 st12">R</text>
<text transform="matrix(1 0 0 1 95.8848 124.0127)" class="st10 st11 st12">A</text>
<text transform="matrix(1 0 0 1 112.7324 111.3955)" class="st10 st11 st12">T</text>
<text transform="matrix(1 0 0 1 128.7456 99.4063)" class="st10 st11 st12">E</text>
<text transform="matrix(1 0 0 1 143.8965 88.0625)" class="st10 st11 st12">D</text>
<text transform="matrix(1 0 0 1 160.3799 75.7197)" class="st10 st11 st12"> </text>
<text transform="matrix(1 0 0 1 175.5552 64.3555)" class="st11 st12"> </text>
<text transform="matrix(1 0 0 1 190.7334 52.9922)" class="st8 st9"> </text>
<path id="SVGID_x5F_2_x5F_" class="st7" d="M-133.1,291.6C-3,236.8,127.1,181.9,257.2,127.1"/>
<text transform="matrix(1 0 0 1 30.7739 222.5215)" class="st8 st9"> </text>
<text transform="matrix(1 0 0 1 38.124 219.4248)" class="st13 st11 st12">D</text>
<text transform="matrix(1 0 0 1 57.1006 211.4268)" class="st13 st11 st12">E</text>
<text transform="matrix(1 0 0 1 74.542 204.0791)" class="st13 st11 st12">S</text>
<text transform="matrix(1 0 0 1 92.166 196.6524)" class="st13 st11 st12">I</text>
<text transform="matrix(1 0 0 1 99.9243 193.3819)" class="st13 st11 st12">G</text>
<text transform="matrix(1 0 0 1 117.3672 186.0322)" class="st13 st11 st12">N</text>
<text transform="matrix(1 0 0 1 137.727 177.4541)" class="st13 st11 st12"> </text>
<text transform="matrix(1 0 0 1 155.1977 170.0918)" class="st11 st12"> </text>
<text transform="matrix(1 0 0 1 172.6709 162.7285)" class="st8 st9"> </text>
<linearGradient id="SVGID_4_" gradientUnits="userSpaceOnUse" x1="-2.1845" y1="149.5466" x2="177.4892" y2="149.5466">
	<stop  offset="0" style="stop-color:#FFFFFF"/>
	<stop  offset="1" style="stop-color:#000000"/>
</linearGradient>
<polyline class="st14" points="177.5,82.6 166.5,141.3 -2.2,216.5 "/>
</svg>
